General
Complete name                    : Land of the Lost.avi
Format                           : AVI
File size                        : 706 MiB
Duration                         : 1h 41mn
Overall bit rate                 : 971 Kbps

Video
ID                               : 0
Format                           : MPEG-4 Visual)
Codec ID                         : XVID
Duration                         : 1h 41mn
Bit rate                         : 830 Kbps
Width                            : 720 pixels
Height                           : 460 pixels
Display aspect ratio             : 1.855
Resolution                       : 8 bits
Colorimetry                      : 4:2:0
Scan type                        : Progressive
Bits/(Pixel*Frame)               : 0.105
Stream size                      : 604 MiB (85%)
Writing library                  : XviD 1.1.2 (UTC 2006-11-01)

Audio
ID                               : 1
Format                           : MPEG Audio
Mode                             : Joint stereo
Codec ID                         : 55
Codec ID/Hint                    : MP3
Duration                         : 1h 41mn
Bit rate mode                    : Constant
Bit rate                         : 128 Kbps
Channel(s)                       : 2 channels
Sampling rate                    : 48.0 KHz
Stream size                      : 93.1 MiB (13%)
Alignment                        : Split accross interleaves
Interleave, duration             : 24 ms (0.58 video frame)
Writing library                  : LAME3.98

